<svg width="176" height="42" viewBox="0 0 176 42" fill="none" xmlns="http://www.w3.org/2000/svg">
<path d="M9.41666 32.6521H1.04304V32.1021H2.21738L2.26844 20.5528H0.940918L0.991977 20.0028H5.28091V20.5528H4.0555V32.1021H5.74043C8.14019 32.1021 9.05925 30.8189 9.16136 27.7635L9.62089 27.8857L9.41666 32.6521Z" fill="white"/>
<path d="M22.437 20.5529C21.7222 20.5529 21.3648 20.5529 21.3648 21.2862L21.3137 29.6579C21.3137 31.43 20.3947 32.9577 17.7907 32.9577C16.0547 32.9577 13.9102 31.98 13.3996 30.0246C13.2465 29.4135 13.3486 26.1137 13.3486 25.6859V20.614H11.9189L11.97 20.064H16.31V20.614H15.0335V25.9304C15.0335 28.008 15.0335 29.9023 15.1867 30.5134C15.4931 31.8578 16.6163 32.4078 17.7396 32.4078C19.7309 32.4078 20.8032 31.4911 20.8032 29.5357V22.6305C20.8032 22.2028 20.8032 21.2251 20.7521 20.9195C20.65 20.614 20.5479 20.614 19.7309 20.614H19.2203L19.2714 20.064H22.386L22.437 20.5529Z" fill="white"/>
<path d="M33.5678 20.6751H33.3635C32.904 20.6751 32.6998 20.7362 32.5466 21.1028L30.6064 25.6859L33.1593 32.1022H34.1294L34.1805 32.6522H30.3V32.1022H31.4744L29.6362 27.458L27.9002 30.8189C27.7981 31.0634 27.5428 31.6745 27.5428 31.8578C27.5939 32.0411 27.7471 32.1022 28.1045 32.1022H28.564V32.6522H25.5515L25.5005 32.1022C26.5727 32.1022 26.7259 32.1022 27.0322 31.3689L29.2788 26.7858L26.777 20.7362H25.5515L25.6026 20.1862H29.4831V20.7362H28.5129L30.2489 25.0748L31.6275 21.7139C31.6786 21.5306 31.8828 21.164 31.8318 20.9806C31.7296 20.614 31.4233 20.6751 31.1169 20.6751H30.6064V20.1251H33.5167V20.6751H33.5678Z" fill="white"/>
<path d="M48.1709 20.5529C47.4561 20.5529 47.0987 20.5529 47.0987 21.2862L47.0476 29.6579C47.0476 31.43 46.1286 32.9577 43.5246 32.9577C41.7886 32.9577 39.6441 31.98 39.1335 30.0246C38.9804 29.4135 39.0825 26.1137 39.0825 25.6859V20.614H37.6528L37.7039 20.064H42.0439V20.614H40.7674V25.9304C40.7674 28.008 40.7674 29.9023 40.9206 30.5134C41.2269 31.8578 42.3502 32.4078 43.4735 32.4078C45.4648 32.4078 46.537 31.4911 46.537 29.5357V22.6305C46.537 22.2028 46.537 21.2251 46.486 20.9195C46.3839 20.614 46.2818 20.614 45.4648 20.614H44.9542L45.0053 20.064H48.1199L48.1709 20.5529Z" fill="white"/>
<path d="M55.8293 20.5528C57.4632 20.5528 57.5142 22.0805 57.5142 23.3026C57.5142 24.647 57.1058 25.9302 56.0335 25.9302H54.4507L54.3997 20.6139H55.8293V20.5528ZM59.2502 23.1804C59.2502 22.0805 58.5354 20.0028 56.0846 20.0028H51.3872V20.5528H52.7147V32.1021H51.5914V32.6521H55.8293V32.1021H54.4507V26.4802H55.8804C56.442 26.4802 56.9015 26.7246 57.0547 27.3968C57.1568 27.8857 57.2079 30.4522 57.31 30.9411C57.4632 31.6133 58.127 32.7743 59.3524 32.7743C60.2204 32.7743 60.4757 31.9799 60.6288 31.491L60.1693 31.2466C60.0161 31.491 60.0161 32.041 59.4034 32.041C59.1481 32.041 59.0971 31.8577 59.046 31.6744C58.8928 31.0022 58.995 29.2912 58.7397 28.2523C58.4333 27.0913 57.5142 26.2358 56.5952 26.1747C56.6462 26.1747 59.2502 25.1358 59.2502 23.1804Z" fill="white"/>
<path d="M72.1679 20.5528H71.9636C71.6573 20.5528 71.5552 20.614 71.402 20.9195L68.9001 27.458V32.0411H70.2276V32.591H66.0408V32.0411H67.2152L67.2662 27.2136L65.2749 20.4917H64.1006V19.9418H68.0832V20.4917H66.9088L68.798 26.8469H68.6959L70.7382 21.4695C70.8914 21.0417 71.0956 20.8584 71.0446 20.6751C70.9935 20.4917 70.4829 20.4917 70.1255 20.4917H69.7681V19.9418H72.321L72.1679 20.5528Z" fill="white"/>
<path d="M120.519 32.6522H112.146V32.1022H113.32L113.371 20.5529H112.043L112.095 20.0029H116.383V20.5529H115.158V32.1022H116.843C119.243 32.1022 120.162 30.819 120.264 27.7636L120.723 27.8858L120.519 32.6522Z" fill="white"/>
<path d="M128.791 20.553H127.515V32.1023H128.842L128.791 32.6523H124.655V32.1023H125.779V20.553H124.451L124.502 20.0641H128.74L128.791 20.553Z" fill="white"/>
<path d="M140.485 20.553C139.974 20.553 139.872 20.553 139.821 20.9197L137.217 32.5912H136.757L133.541 20.6141H132.366V20.0641H136.757V20.6141H135.123L137.37 29.047L139.106 21.2863C139.157 21.103 139.259 20.9808 139.208 20.7974C139.157 20.553 138.595 20.6141 138.136 20.6141V20.0641H140.433L140.485 20.553Z" fill="white"/>
<path d="M148.5 20.553H147.223V32.1023H148.551V32.6523H144.364V32.1023H145.487V20.553H144.16L144.211 20.0641H148.5V20.553Z" fill="white"/>
<path d="M162.438 20.553H162.183C161.468 20.553 161.315 20.7364 161.315 21.3474L161.366 32.3468L160.549 32.7746L154.116 20.9808V30.758C154.116 31.1858 154.167 31.4302 154.167 31.6135C154.218 31.7357 154.32 32.0413 154.933 32.0413H155.443V32.5912H152.482V32.0413H152.992C153.758 32.0413 153.707 31.6135 153.656 29.1081V20.4919H152.329V19.942H155.341L160.855 29.9636V22.3252C160.855 21.7752 160.855 21.103 160.804 20.7975C160.753 20.4919 160.549 20.4919 159.528 20.4308L159.579 19.942H162.489L162.438 20.553Z" fill="white"/>
<path d="M174.692 24.8916H174.13C174.079 24.4027 174.028 23.9139 173.926 23.3639C173.364 21.1029 172.088 20.3085 170.556 20.3085C168.616 20.3085 167.952 21.8362 168.003 26.7859C168.054 31.919 168.82 32.4078 171.322 32.4078C172.649 32.4078 172.905 31.4301 172.956 31.1245L173.007 28.558H171.883V28.0081H175.917L175.968 28.558H174.896L174.845 30.6357C174.845 31.6745 172.7 32.9578 171.526 32.9578C168.973 32.9578 166.267 31.1857 166.114 26.847C166.012 22.9361 168.156 19.7585 170.607 19.7585C172.496 19.7585 173.415 20.9807 174.028 20.9807C174.385 20.9807 174.283 20.7363 174.334 20.2474L174.794 20.4307L174.692 24.8916Z" fill="white"/>
<path d="M79.8768 1.48732H75.9964V0.754028H87.6888V1.48732H83.8083V32.7133H88.6589C96.1135 32.7133 98.4111 31.5522 98.4111 22.7528H99.0238V33.4466H75.9453V32.7133H79.8258V1.48732H79.8768Z" fill="white"/>
<path d="M89.016 9.73677H86.0546V9.00348H96.828V9.73677H92.9475V40.9627H97.7981C105.253 40.9627 107.55 39.8017 107.55 31.0022H108.163V41.696H85.0845V40.9627H88.9649V9.73677H89.016Z" fill="white"/>
</svg>
