<svg width="26" height="26" viewBox="0 0 26 26" fill="none" xmlns="http://www.w3.org/2000/svg">
<path fill-rule="evenodd" clip-rule="evenodd" d="M5.83042 12.2015C5.83042 8.81456 8.58479 6.06019 11.9717 6.06019C15.3586 6.06019 18.113 8.81456 18.113 12.2015C18.113 15.5884 15.3586 18.3428 11.9717 18.3428C8.58479 18.3428 5.83042 15.5884 5.83042 12.2015ZM21.9072 20.6897L18.4322 17.2138C19.51 15.8279 20.16 14.0909 20.16 12.2015C20.16 7.68658 16.4865 4.01306 11.9716 4.01306C7.45672 4.01306 3.7832 7.68658 3.7832 12.2015C3.7832 16.7163 7.45672 20.3898 11.9716 20.3898C13.8611 20.3898 15.598 19.7399 16.9839 18.6621L20.4599 22.137C20.6595 22.3366 20.9215 22.4369 21.1835 22.4369C21.4456 22.4369 21.7076 22.3366 21.9072 22.137C22.3074 21.7368 22.3074 21.09 21.9072 20.6897Z" fill="white"/>
</svg>
