<svg width="24" height="25" viewBox="0 0 24 25" fill="none" xmlns="http://www.w3.org/2000/svg">
<path d="M12 1.00439C5.90842 1.00439 0.959961 5.95286 0.959961 12.0444C0.959961 18.1359 5.90842 23.0844 12 23.0844C18.0915 23.0844 23.04 18.1359 23.04 12.0444C23.04 5.95286 18.0915 1.00439 12 1.00439ZM12 1.96439C17.5727 1.96439 22.08 6.47168 22.08 12.0444C22.08 17.6171 17.5727 22.1244 12 22.1244C6.42725 22.1244 1.91996 17.6171 1.91996 12.0444C1.91996 6.47168 6.42725 1.96439 12 1.96439ZM7.2009 8.68439L5.26402 8.68533C5.26402 8.68533 5.15319 8.67909 5.01934 8.69658C4.88548 8.71408 4.68773 8.7222 4.48496 8.95158L4.48402 8.95252L4.48309 8.95346C4.30272 9.15972 4.3096 9.39979 4.33215 9.53189C4.35461 9.66351 4.40527 9.76252 4.40527 9.76252V9.76346C4.42389 9.80914 5.83022 13.2549 7.60309 15.1063C8.85361 16.413 10.191 16.8444 11.3821 16.8444H12C12.2032 16.8444 12.3848 16.8351 12.5859 16.731C12.787 16.6268 12.96 16.3392 12.96 16.116C12.96 15.8754 12.9659 15.6422 12.9965 15.5122C13.0252 15.3908 13.0141 15.4206 13.0256 15.4203C13.0371 15.4228 13.058 15.4277 13.0978 15.4456C13.1834 15.4844 13.3157 15.5708 13.4625 15.6847C13.7555 15.9122 14.1026 16.2423 14.4918 16.4975C15.0493 16.867 15.6543 16.8444 15.6543 16.8444H17.6493L17.6709 16.8425C17.6709 16.8425 17.977 16.8356 18.2915 16.6428C18.4488 16.5465 18.6357 16.3697 18.6984 16.1047C18.7611 15.8397 18.681 15.5617 18.5268 15.3172C18.4705 15.2275 18.1971 14.8312 17.1056 13.8622C16.8236 13.6121 16.6313 13.4351 16.5553 13.341C16.5283 13.3075 16.526 13.3108 16.5206 13.3091C16.5269 13.2927 16.59 13.1599 16.7587 12.9406C16.9345 12.7122 17.2017 12.3938 17.5453 11.9563C17.9832 11.3984 18.2904 10.862 18.4837 10.4094C18.5804 10.1831 18.6489 9.97773 18.69 9.79158C18.731 9.60543 18.7638 9.4507 18.7031 9.23002C18.6578 9.06575 18.5349 8.91862 18.4143 8.84096C18.2938 8.76329 18.1814 8.73404 18.0806 8.71533C17.8789 8.67791 17.7009 8.68439 17.535 8.68439C17.1875 8.68439 15.6431 8.69658 15.5156 8.69658C15.366 8.69658 15.1273 8.75889 15.0168 8.82221C14.7426 8.97924 14.6568 9.19439 14.6568 9.19439L14.6306 9.24033L14.6156 9.29189C14.6156 9.29189 14.2639 10.4296 13.9021 11.016H13.9012C13.4758 11.7067 13.1585 11.9807 13.019 12.0585C13.0042 12.0667 13.0124 12.0623 13.0021 12.0678C12.9912 12.036 12.9775 11.9923 12.9684 11.9113C12.948 11.7288 12.96 11.4717 12.96 11.2231C12.96 10.5346 13.0117 10.1053 12.9543 9.69877C12.9257 9.49551 12.8527 9.26916 12.6862 9.09502C12.5197 8.92088 12.3047 8.83516 12.09 8.78564H12.089C11.8652 8.73411 11.6241 8.68985 11.0446 8.68439C10.3064 8.67751 9.82562 8.7004 9.3984 8.89064L9.39371 8.89346L9.38996 8.89533C9.22116 8.97462 9.08809 9.06551 8.9709 9.18689C8.9123 9.24759 8.84279 9.29178 8.79465 9.48502C8.77058 9.58164 8.76794 9.76444 8.87715 9.91252C8.98636 10.0606 9.13941 10.1053 9.22965 10.1169C9.213 10.1147 9.30064 10.134 9.3684 10.1675C9.43616 10.201 9.49499 10.2493 9.50996 10.2688V10.2697C9.5037 10.2616 9.56876 10.4233 9.5859 10.5706C9.60303 10.718 9.59996 10.8369 9.59996 10.8369L9.59902 10.866L9.60184 10.895C9.60184 10.895 9.6313 11.2212 9.6159 11.5578C9.60819 11.7262 9.58692 11.8956 9.55871 11.9994C9.55722 12.0049 9.55654 12.003 9.55496 12.0078C9.43478 11.9239 9.15767 11.6314 8.7759 11.001C8.42299 10.4177 8.09246 9.36877 8.09246 9.36877L8.08496 9.34533L8.07652 9.32283C8.07652 9.32283 8.0149 9.0885 7.74277 8.89721C7.48771 8.71765 7.24496 8.69283 7.24496 8.69283L7.2009 8.68439ZM7.08934 9.64439C7.11679 9.65443 7.17419 9.67511 7.18496 9.68002L7.17371 9.64627L7.18871 9.68096L7.19059 9.68189V9.68283H7.19152C7.1674 9.66595 7.18785 9.68271 7.19059 9.68658C7.20384 9.73181 7.49693 10.7414 7.95465 11.4978C8.37161 12.1864 8.67967 12.5722 9.0159 12.8028C9.3518 13.0332 9.80349 13.0095 10.0331 12.89C10.3399 12.7307 10.4257 12.4688 10.485 12.2506C10.5442 12.0325 10.5654 11.8112 10.575 11.6019C10.5932 11.2025 10.562 10.8759 10.559 10.8435C10.5595 10.8254 10.5638 10.6694 10.5393 10.4591C10.5147 10.2472 10.4705 9.98383 10.2825 9.71939C10.4931 9.68809 10.6101 9.64043 11.0353 9.64439C11.5775 9.6495 11.66 9.67212 11.8734 9.72127C11.9896 9.74807 12.0025 9.77028 11.9915 9.75877C11.9805 9.74726 11.9906 9.73957 12.0037 9.83283C12.03 10.0193 12 10.4976 12 11.2231C12 11.4277 11.9802 11.7161 12.014 12.0181C12.0478 12.32 12.1422 12.7062 12.5071 12.9322C12.7151 13.0609 13.1124 13.1052 13.4868 12.8966C13.8613 12.688 14.2455 12.2878 14.7187 11.5194C15.1861 10.7617 15.4657 9.76562 15.4959 9.66033C15.4959 9.66033 15.5012 9.65686 15.5043 9.65471C15.5128 9.65512 15.502 9.65658 15.5156 9.65658C15.6934 9.65658 17.2104 9.64439 17.535 9.64439C17.6243 9.64439 17.6635 9.6492 17.73 9.65189C17.7031 9.75553 17.667 9.87621 17.6006 10.0316C17.4446 10.3968 17.1769 10.8704 16.7896 11.3638C16.4559 11.7888 16.1967 12.0971 15.9984 12.3547C15.8001 12.6123 15.6444 12.8156 15.5793 13.1094C15.5143 13.4032 15.6384 13.7346 15.8081 13.9447C15.9778 14.1548 16.1877 14.3317 16.4681 14.5803C17.5241 15.5179 17.6974 15.8017 17.714 15.8281V15.8291C17.7319 15.8574 17.7203 15.8289 17.7271 15.8431C17.6673 15.8618 17.596 15.8829 17.5893 15.8844H15.6468H15.644C15.644 15.8844 15.2867 15.8727 15.0215 15.6969L15.0206 15.696H15.0196C14.7391 15.5122 14.4 15.197 14.0512 14.9263C13.8768 14.7909 13.6993 14.664 13.4934 14.571C13.2875 14.4779 13.0265 14.4119 12.7518 14.4941C12.3543 14.6131 12.1336 14.9914 12.0628 15.2919C12.0119 15.5076 12.0194 15.6951 12.0178 15.8835C12.0041 15.8842 12.0159 15.8844 12 15.8844H11.3821C10.4065 15.8844 9.39159 15.5866 8.29684 14.4425C6.87355 12.9562 5.6037 10.082 5.41309 9.64533L7.08934 9.64439ZM15.4621 9.64814C15.4534 9.65009 15.4784 9.65197 15.4987 9.65377C15.496 9.65526 15.4989 9.65245 15.495 9.65471C15.4946 9.64669 15.4739 9.64554 15.4621 9.64814Z" fill="#667085"/>
</svg>
